<svg width="66" height="66" viewBox="0 0 66 66" fill="none" xmlns="http://www.w3.org/2000/svg">
<path d="M65.1633 8.59833C64.5085 7.79533 63.5656 7.33333 62.5713 7.33333H15.192L14.5234 3.06533C14.2491 1.298 12.8194 0 11.1428 0H3.42857C1.53257 0 0 1.639 0 3.66667C0 5.69433 1.53257 7.33333 3.42857 7.33333H8.23884L14.616 48.268C14.6434 48.433 14.7223 48.5687 14.7703 48.7227C14.8251 48.917 14.8697 49.1003 14.9554 49.2763C15.0651 49.5183 15.2125 49.7237 15.3668 49.9327C15.4731 50.0757 15.5691 50.2187 15.6925 50.3433C15.8914 50.5413 16.1211 50.6807 16.3543 50.82C16.4845 50.897 16.5977 50.9997 16.7383 51.0583C17.136 51.2307 17.5543 51.3333 17.9965 51.3333C18 51.3333 55.7142 51.3333 55.7142 51.3333C57.6102 51.3333 59.1428 49.6943 59.1428 47.6667C59.1428 45.639 57.6102 44 55.7142 44H20.904L20.3348 40.3333H59.1428C60.8502 40.3333 62.297 38.9913 62.537 37.1873L65.9656 11.5207C66.1062 10.4647 65.8113 9.39767 65.1633 8.59833ZM58.6182 14.6667L57.6411 22H45.4285V14.6667H58.6182ZM41.9999 14.6667V22H31.7142V14.6667H41.9999ZM41.9999 25.6667V33H31.7142V25.6667H41.9999ZM28.2857 14.6667V22H18C17.8183 22 17.6537 22.055 17.4925 22.11L16.3337 14.6667H28.2857ZM18.048 25.6667H28.2857V33H19.1897L18.048 25.6667ZM45.4285 33V25.6667H57.1473L56.1702 33H45.4285Z" fill="#0C21D6"/>
<path d="M23.1427 66.0001C25.983 66.0001 28.2856 63.5376 28.2856 60.5001C28.2856 57.4625 25.983 55.0001 23.1427 55.0001C20.3024 55.0001 17.9999 57.4625 17.9999 60.5001C17.9999 63.5376 20.3024 66.0001 23.1427 66.0001Z" fill="#0C21D6"/>
<path d="M54 66.0001C56.8403 66.0001 59.1429 63.5376 59.1429 60.5001C59.1429 57.4625 56.8403 55.0001 54 55.0001C51.1597 55.0001 48.8572 57.4625 48.8572 60.5001C48.8572 63.5376 51.1597 66.0001 54 66.0001Z" fill="#0C21D6"/>
</svg>
