<svg width="187" height="79" viewBox="0 0 187 79" fill="none" xmlns="http://www.w3.org/2000/svg">
<path d="M13.6391 62H4.13109V11.6401H13.6391V62ZM19.9997 43.9347C19.9997 40.4156 20.6773 37.2791 22.0325 34.525C23.3876 31.7709 25.333 29.6398 27.8684 28.1316C30.4258 26.6235 33.3875 25.8694 36.7536 25.8694C41.5404 25.8694 45.4419 27.3338 48.4583 30.2628C51.4965 33.1917 53.1905 37.1698 53.5402 42.197L53.6058 44.6232C53.6058 50.0658 52.0867 54.4373 49.0485 57.7378C46.0102 61.0164 41.9338 62.6557 36.8191 62.6557C31.7044 62.6557 27.6171 61.0164 24.557 57.7378C21.5188 54.4591 19.9997 50.0002 19.9997 44.3609V43.9347ZM29.475 44.6232C29.475 47.9893 30.1088 50.5685 31.3766 52.3608C32.6443 54.1313 34.4585 55.0165 36.8191 55.0165C39.1142 55.0165 40.9065 54.1422 42.1961 52.3936C43.4857 50.6231 44.1305 47.8035 44.1305 43.9347C44.1305 40.6342 43.4857 38.0769 42.1961 36.2627C40.9065 34.4485 39.0923 33.5414 36.7536 33.5414C34.4366 33.5414 32.6443 34.4485 31.3766 36.2627C30.1088 38.055 29.475 40.8418 29.475 44.6232ZM72.1956 50.4264L78.7857 26.5251H88.6872L76.7202 62H67.6711L55.7041 26.5251H65.6056L72.1956 50.4264ZM108.752 62.6557C103.55 62.6557 99.31 61.0601 96.0314 57.8689C92.7746 54.6777 91.1462 50.4264 91.1462 45.115V44.197C91.1462 40.6342 91.8347 37.4539 93.2117 34.6561C94.5888 31.8365 96.5341 29.6726 99.0477 28.1644C101.583 26.6344 104.468 25.8694 107.703 25.8694C112.556 25.8694 116.37 27.3994 119.146 30.4595C121.944 33.5195 123.342 37.8583 123.342 43.4757V47.3445H100.753C101.059 49.6614 101.977 51.5193 103.507 52.9182C105.059 54.3171 107.015 55.0165 109.375 55.0165C113.026 55.0165 115.878 53.6941 117.933 51.0493L122.588 56.2624C121.168 58.2733 119.244 59.847 116.818 60.9836C114.392 62.0984 111.703 62.6557 108.752 62.6557ZM107.671 33.5414C105.791 33.5414 104.261 34.1753 103.08 35.443C101.922 36.7108 101.179 38.5249 100.851 40.8856H114.031V40.1315C113.987 38.0331 113.419 36.4157 112.326 35.2791C111.233 34.1206 109.681 33.5414 107.671 33.5414Z" fill="#0C21D6"/>
<path d="M134.982 62H125.67L134.424 11.6401H143.703L134.982 62ZM157.899 48.492L168.03 26.5251H178.325L157.571 67.3442C156.085 70.4698 154.337 72.7649 152.326 74.2293C150.337 75.6938 148.031 76.426 145.408 76.426C144.38 76.426 142.894 76.1965 140.949 75.7375L141.637 68.5245L142.916 68.5901C145.932 68.6775 148.14 67.5737 149.539 65.2786L151.572 61.5082L145.768 26.5251H155.342L157.899 48.492Z" fill="#FFFEFE"/>
</svg>
